PathFileType	4	(X/Y/Z)	C:\Users\Basilio\Documents\Thesis Gigler\squatting_fais\c3dfiles\058\SLS_front_pre5\markers_experimental.trc
DataRate	CameraRate	NumFrames	NumMarkers	Units	OrigDataRate	OrigDataStartFrame	OrigNumFrames
200.000000	200.000000	4	61	mm	200.000000	0	1236
Frame#	Time	FHD			LBHD			RBHD			C7			T10			CLAV			LSHO			LUUPA			LMUPA			LDUPA			LLEP			LMEP			LRAD			LUL			LRFIN			RSHO			RUPA1			RMUPA			RDUPA			RLEP			RMEP			RRAD			RUL			RUFIN			LASI			RASI			USACR			LSACR			RSACR			LTHI1			LTHI2			LTHI3			LTHI4			LLFC			LMFC			LTIB1			LTIB2			LTIB3			LTIB4			LLMAL			LMMAL			LHEE			LMT1			LMT2			LMT5			RTHI			RTHI2			RTHI3			RTHI4			RLFC			RMFC			RTIB1			RTIB2			RTIB3			RTIB4			RLMAL			RMMAL			RHEE			RMT1			RMT2			RMT5			
		X1	Y1	Z1	X2	Y2	Z2	X3	Y3	Z3	X4	Y4	Z4	X5	Y5	Z5	X6	Y6	Z6	X7	Y7	Z7	X8	Y8	Z8	X9	Y9	Z9	X10	Y10	Z10	X11	Y11	Z11	X12	Y12	Z12	X13	Y13	Z13	X14	Y14	Z14	X15	Y15	Z15	X16	Y16	Z16	X17	Y17	Z17	X18	Y18	Z18	X19	Y19	Z19	X20	Y20	Z20	X21	Y21	Z21	X22	Y22	Z22	X23	Y23	Z23	X24	Y24	Z24	X25	Y25	Z25	X26	Y26	Z26	X27	Y27	Z27	X28	Y28	Z28	X29	Y29	Z29	X30	Y30	Z30	X31	Y31	Z31	X32	Y32	Z32	X33	Y33	Z33	X34	Y34	Z34	X35	Y35	Z35	X36	Y36	Z36	X37	Y37	Z37	X38	Y38	Z38	X39	Y39	Z39	X40	Y40	Z40	X41	Y41	Z41	X42	Y42	Z42	X43	Y43	Z43	X44	Y44	Z44	X45	Y45	Z45	X46	Y46	Z46	X47	Y47	Z47	X48	Y48	Z48	X49	Y49	Z49	X50	Y50	Z50	X51	Y51	Z51	X52	Y52	Z52	X53	Y53	Z53	X54	Y54	Z54	X55	Y55	Z55	X56	Y56	Z56	X57	Y57	Z57	X58	Y58	Z58	X59	Y59	Z59	X60	Y60	Z60	X61	Y61	Z61	

1	0	-291.1861877441407	1817.9453125	-824.8652954101565	-437.0174255371095	1765.242919921875	-916.053649902344	-262.4663696289063	1821.297729492188	-964.3132934570315	-448.8793945312501	1602.870483398438	-925.8988037109377	-444.1509399414064	1294.021606445313	-905.7869873046877	-291.9193725585938	1558.141967773438	-896.2221679687502	-291.8002929687501	1594.834594726563	-1076.133666992188	-352.6498413085938	1374.127807617188	-1185.302001953125	-305.9493103027344	1359.928344726563	-1181.489135742188	-336.5303955078126	1306.506591796875	-1185.358032226563	-325.9934082031251	1237.748168945313	-1183.411743164063	-352.5207824707032	1220.209838867188	-1121.305541992188	-205.6230468750001	992.4433593750002	-1132.232055664063	-244.7768707275391	982.9749145507815	-1204.030151367188	-162.8955535888672	901.914489746094	-1156.343017578125	-342.9299621582032	1598.559814453125	-718.1473999023439	-407.6363525390626	1370.31884765625	-626.0714721679689	-359.2783203125001	1358.013305664063	-627.8865966796876	-384.872283935547	1304.654418945313	-619.6895141601564	-384.9693298339845	1238.895874023438	-622.1708374023439	-397.5628051757814	1214.497680664063	-700.5712890625001	-247.3304290771485	995.6984863281252	-641.0014648437501	-292.5681762695313	992.8682861328127	-573.3049926757814	-211.1200714111329	918.0347290039065	-605.9869995117189	-252.9841003417969	1102.608642578125	-1025.286865234375	-256.8270568847657	1098.055053710938	-780.0590820312502	-450.0176086425782	1172.719604492188	-894.2447509765627	-454.5467224121095	1141.063232421875	-922.5234985351565	-452.8771972656251	1139.703247070313	-865.1553955078127	-329.2732849121094	825.8118896484377	-1111.517700195313	-306.6519775390626	743.3148803710939	-1108.932250976563	-260.4129333496094	741.7180786132814	-1089.586059570313	-339.5127258300782	694.2675170898439	-1106.15576171875	-354.3031921386719	591.0449829101564	-1100.704833984375	-324.7482299804688	575.9915161132814	-979.3845214843752	-312.1116027832032	447.7283325195314	-1076.042846679688	-374.5597229003907	420.4446411132814	-1128.11669921875	-333.8127746582032	407.9195861816407	-1110.800537109375	-339.5221862792969	324.2554931640626	-1090.506591796875	-423.5762634277345	135.2077178955078	-1104.537109375	-389.8666381835939	148.7578125	-1018.08544921875	-482.2546691894532	122.6088638305664	-1048.281127929688	-266.1455993652344	69.41582489013673	-1036.152954101563	-266.4325561523438	64.95176696777345	-1083.317260742188	-319.7286071777344	48.63315582275392	-1134.6806640625	-372.1705017089844	889.1124267578127	-708.6553955078126	-335.9783935546876	834.3005981445315	-696.9160156250001	-302.0919189453126	836.3074340820315	-698.2590332031251	-363.2597351074219	755.2714843750001	-710.4150390625001	-356.8876953125001	575.2572021484376	-712.3649902343751	-303.2414855957032	548.7393188476564	-836.0032958984377	-302.5061340332032	360.5224914550782	-764.7425537109376	-350.9876708984376	292.3953552246094	-694.3402099609376	-313.3960571289063	282.2013854980469	-721.9844970703126	-319.5456237792969	234.2504577636719	-751.3178710937501	-380.5614929199219	128.2257385253907	-704.3324584960939	-348.3780822753907	144.0050811767578	-791.2418212890627	-446.387176513672	108.0102996826172	-765.0256347656251	-237.1459655761719	62.66652679443361	-770.7709960937502	-231.4277496337891	63.00074386596681	-718.5300292968751	-283.2782592773438	32.05617904663087	-668.0675659179689	
2	0.005	-291.0717163085938	1817.977416992188	-824.2596435546877	-436.8577575683595	1765.170166015625	-915.5783691406252	-262.2662658691407	1821.319458007813	-963.8091430664065	-448.7496643066407	1603.0283203125	-925.4956054687502	-444.2999267578126	1294.082885742188	-905.2447509765627	-291.9208374023438	1558.007202148438	-895.617614746094	-291.2320556640626	1594.56689453125	-1076.22705078125	-351.0994567871094	1374.080200195313	-1184.933349609375	-304.4493103027344	1360.007446289063	-1181.057250976563	-334.7639160156251	1306.526123046875	-1185.127685546875	-324.1760559082032	1237.813720703125	-1183.357421875	-352.6083068847657	1220.932495117188	-1120.772583007813	-203.5230712890626	992.5358886718752	-1132.514038085938	-242.4060363769532	983.4385986328127	-1204.595581054688	-160.822998046875	902.244812011719	-1156.6796875	-343.2106323242188	1598.583862304688	-718.0882568359376	-407.1379394531251	1370.285522460938	-625.1654052734376	-358.9767456054688	1358.049682617188	-626.8976440429689	-384.3475952148439	1304.833374023438	-618.8401489257814	-383.9929809570313	1239.118774414063	-621.2178955078126	-396.6420288085939	1214.48291015625	-699.3624267578126	-246.3013153076172	996.046813964844	-640.0537109375001	-291.4893188476563	993.259948730469	-572.1011962890626	-209.4738311767579	918.4902343750002	-605.1582031250001	-253.0353546142579	1102.594604492188	-1024.686401367188	-256.9228515625001	1098.131591796875	-779.4490966796877	-450.2463989257814	1172.742797851563	-893.8303833007815	-454.705535888672	1141.04150390625	-922.127136230469	-453.0506896972657	1139.745483398438	-864.6604003906252	-328.9579162597657	825.7335205078127	-1110.9384765625	-306.7179565429688	743.3462524414064	-1108.291259765625	-260.4313354492188	741.7426147460939	-1089.037353515625	-339.6264038085938	694.3473510742189	-1105.7802734375	-354.4829406738282	591.1702270507814	-1100.390991210938	-325.0924682617188	575.9410400390626	-978.888854980469	-312.1851806640626	447.8017578125001	-1075.80712890625	-374.6946411132813	420.541717529297	-1127.85009765625	-334.0386352539063	407.9643554687501	-1110.47998046875	-339.6333618164063	324.2835998535157	-1090.252319335938	-423.5763549804689	135.2077331542969	-1104.537109375	-389.8839111328126	148.7572784423828	-1018.035522460938	-482.3410949707032	122.5815353393555	-1048.299438476563	-266.1782531738282	69.39029693603517	-1036.207763671875	-266.1927185058594	64.2156219482422	-1083.543701171875	-319.7277526855469	48.61508178710939	-1134.69140625	-372.6430664062501	889.0207519531252	-707.9240112304689	-336.1230163574219	834.218933105469	-696.3859863281251	-303.4503479003907	835.509704589844	-697.1336669921876	-363.3026123046876	755.1935424804689	-709.8699340820314	-356.7925109863282	575.2667846679689	-712.0211791992189	-302.9479980468751	548.8262939453126	-835.6098632812502	-302.3261413574219	360.5022583007813	-764.5360717773439	-350.8690185546876	292.3297729492188	-694.1813354492189	-313.3265686035157	282.1875915527344	-721.7831420898439	-319.4338378906251	234.1961212158204	-751.1967163085939	-380.5469970703126	128.2368774414063	-704.3002319335939	-348.3110351562501	144.0399169921875	-791.2009277343752	-446.3787231445314	107.9903106689453	-765.0252685546876	-237.252182006836	62.67254638671876	-770.7437133789065	-231.4207305908204	63.05202865600587	-718.5633544921876	-283.2723999023438	32.10746765136719	-668.0067138671876	
3	0.01	-290.9176635742188	1817.986694335938	-823.656921386719	-436.7119750976564	1765.03515625	-915.1092529296877	-262.1814575195313	1821.392211914063	-963.324401855469	-448.5026855468751	1603.080322265625	-924.9509887695315	-444.4383239746095	1294.208862304688	-904.8274536132815	-291.8496398925782	1557.890380859375	-895.039001464844	-290.9259948730469	1594.44189453125	-1075.526489257813	-349.7899475097657	1373.88818359375	-1184.554565429688	-302.7902526855469	1360.103149414063	-1180.520874023438	-332.9645690917969	1306.508544921875	-1184.814331054688	-322.0311584472657	1237.891479492188	-1183.260620117188	-350.8561706542969	1220.89404296875	-1120.772338867188	-201.7908935546876	992.6292114257815	-1132.71875	-239.5919494628907	983.9302978515627	-1205.274291992188	-158.2180938720703	902.6596679687502	-1156.88525390625	-343.1351623535157	1598.61669921875	-717.6284179687501	-406.6427001953126	1370.39990234375	-624.6840209960939	-358.4902648925782	1358.38427734375	-626.2766723632814	-383.9283447265626	1305.015014648438	-617.9119873046876	-383.0650634765626	1239.251831054688	-620.0625610351564	-396.0058898925782	1214.664794921875	-698.1143188476564	-245.4511260986329	996.3090820312502	-638.9821777343751	-289.9314270019532	993.6264648437502	-570.8151245117189	-208.2561492919922	918.8623657226565	-603.9490356445314	-253.1597137451172	1102.569946289063	-1024.015869140625	-257.3220214843751	1098.375610351563	-778.722106933594	-450.4187011718751	1172.799926757813	-893.351501464844	-454.8599243164064	1141.049560546875	-921.7285156250002	-453.2378540039064	1139.76513671875	-864.0986328125002	-328.9551391601563	825.7734985351565	-1110.318237304688	-306.8745422363282	743.4657592773439	-1107.714111328125	-260.6744384765626	741.7338867187501	-1088.423583984375	-339.9366760253907	694.3795166015626	-1105.32666015625	-354.7373046875001	591.2230834960939	-1100.042236328125	-325.3916015625001	575.9436035156251	-978.323669433594	-312.3633728027344	448.0166320800782	-1075.521484375	-374.8267822265626	420.594940185547	-1127.650634765625	-334.1027832031251	408.0862426757814	-1110.1826171875	-340.0072631835938	324.2683410644532	-1089.927490234375	-423.5967407226564	135.2532043457032	-1104.5390625	-389.906219482422	148.7280731201172	-1018.023803710938	-482.3323059082032	122.6231307983399	-1048.296875	-266.1855773925782	69.3724822998047	-1036.213012695313	-266.2265930175782	64.19466400146486	-1083.522583007813	-319.6900329589844	48.57489013671876	-1134.686279296875	-372.7490234375001	888.9605102539065	-707.4327392578126	-336.0911865234376	834.2287597656252	-695.9489746093751	-303.5917053222657	835.6304321289065	-696.5932006835939	-363.2394104003907	755.1229858398439	-709.3427124023439	-356.5459289550782	575.2054443359376	-711.6091918945314	-302.3651428222657	549.5616455078126	-834.5142822265627	-302.2739562988282	360.4852294921876	-764.3607788085939	-350.8217163085938	292.3035888671876	-693.9558715820314	-313.2545776367188	282.1838684082032	-721.6273193359376	-319.4458007812501	234.1691894531251	-751.1027221679689	-380.5096740722657	128.234619140625	-704.2977294921876	-348.3233337402344	144.0259704589844	-791.1663208007815	-446.3837890625001	108.0242233276367	-765.0547485351564	-237.2315063476563	62.65402603149415	-770.7766723632815	-231.4031677246094	63.05472946166994	-718.5632324218751	-283.2719726562501	32.09407043457032	-668.0791625976564	
4	0.015	-290.7519226074219	1818.0087890625	-823.1889648437502	-436.612762451172	1764.957763671875	-914.3967895507815	-262.0463562011719	1821.404174804688	-962.8161621093752	-448.3008117675782	1603.104248046875	-924.5083007812502	-444.6065673828126	1294.342407226563	-904.2904052734377	-291.8327941894532	1557.765014648438	-894.4217529296877	-290.8116149902344	1594.477661132813	-1073.987670898438	-348.1062316894532	1373.814208984375	-1184.202880859375	-301.5422973632813	1360.167724609375	-1180.008178710938	-331.1167297363282	1306.553588867188	-1184.624389648438	-319.9852600097657	1238.040161132813	-1183.104858398438	-347.0140686035157	1220.042358398438	-1121.275146484375	-199.4954071044922	992.749206542969	-1132.85205078125	-236.6845855712891	984.3500976562502	-1205.84912109375	-155.363265991211	903.0670166015627	-1157.259521484375	-343.0773010253907	1598.661743164063	-717.1464843750001	-406.0424194335939	1370.500122070313	-623.9935302734376	-357.9582214355469	1358.580200195313	-625.4507446289064	-383.1905517578126	1305.228759765625	-616.9240722656251	-382.0238647460938	1239.626586914063	-618.8942871093751	-395.1346435546876	1214.737670898438	-696.8191528320314	-243.9959259033204	996.5847167968752	-637.9099731445314	-288.3414306640626	994.0640258789065	-569.3784790039064	-207.0514831542969	919.4859619140627	-603.0441284179689	-253.2321777343751	1102.524780273438	-1023.317687988281	-257.3741455078126	1098.435424804688	-778.0481567382815	-450.5599670410157	1172.84375	-892.8077392578127	-455.0259094238282	1141.06640625	-921.2614746093752	-453.4241027832032	1139.776123046875	-863.5654907226565	-329.0713195800782	825.800231933594	-1109.940551757813	-306.9219055175782	743.5480346679689	-1107.2646484375	-260.7891845703126	741.8182373046876	-1087.813232421875	-340.1108093261719	694.3359375000001	-1104.84716796875	-354.9143676757813	591.3358764648439	-1099.553833007813	-325.7537841796876	575.9197998046876	-977.8911132812502	-312.4106445312501	448.1052246093751	-1075.309204101563	-374.8936767578126	420.6690063476564	-1127.393676757813	-334.3898315429688	408.1048278808595	-1109.888549804688	-340.0327758789063	324.3256530761719	-1089.811401367188	-423.6126098632814	135.2515258789063	-1104.50390625	-389.9544982910157	148.7181091308594	-1017.990539550781	-482.3341674804689	122.6165237426758	-1048.324340820313	-266.1722717285157	69.35430145263673	-1036.211303710938	-266.2186889648438	64.18637084960939	-1083.524658203125	-319.7088928222657	48.60345840454103	-1134.69580078125	-372.7873840332032	888.9077758789065	-706.8586425781251	-336.2450561523438	834.2744750976565	-695.3688964843751	-303.2448730468751	835.5349731445315	-696.1425170898439	-363.1927185058594	755.0938720703126	-708.7779541015626	-356.3432006835938	575.1399536132814	-711.1000366210939	-302.1870117187501	549.5850830078126	-834.1042480468752	-302.1926879882813	360.4377136230469	-764.1638183593751	-350.7445678710938	292.2764587402344	-693.7601318359376	-313.2045288085938	282.1897583007813	-721.4607543945314	-319.4135437011719	234.1449279785157	-750.9859619140626	-380.5051269531251	128.2287902832032	-704.2842407226564	-348.3517761230469	144.114501953125	-791.172546386719	-446.3837890625001	108.0242233276367	-765.0547485351564	-237.2066040039063	62.63417053222658	-770.769714355469	-231.4075775146485	63.06839752197267	-718.5621337890626	-283.2752380371094	32.06837463378907	-668.0769042968751	
